<svg width="20" height="18" viewBox="0 0 20 18" fill="none" xmlns="http://www.w3.org/2000/svg">
<path fill-rule="evenodd" clip-rule="evenodd" d="M13.0402 1.05132C14.0502 1.45332 14.3592 2.85332 14.7722 3.30332C15.1852 3.75332 15.7762 3.90632 16.1032 3.90632C17.8412 3.90632 19.2502 5.31532 19.2502 7.05232V12.8473C19.2502 15.1773 17.3602 17.0673 15.0302 17.0673H4.97021C2.63921 17.0673 0.750214 15.1773 0.750214 12.8473V7.05232C0.750214 5.31532 2.15921 3.90632 3.89721 3.90632C4.22321 3.90632 4.81421 3.75332 5.22821 3.30332C5.64121 2.85332 5.94921 1.45332 6.95921 1.05132C7.97021 0.649317 12.0302 0.649317 13.0402 1.05132Z" stroke="#A5A3B0" stroke-width="1.2" stroke-linecap="round" stroke-linejoin="round"/>
<path d="M15.4955 6.5H15.5045" stroke="#A5A3B0" stroke-width="1.2" stroke-linecap="round" stroke-linejoin="round"/>
<path fill-rule="evenodd" clip-rule="evenodd" d="M13.1789 10.128C13.1789 8.37204 11.7559 6.94904 9.99992 6.94904C8.24392 6.94904 6.82092 8.37204 6.82092 10.128C6.82092 11.884 8.24392 13.307 9.99992 13.307C11.7559 13.307 13.1789 11.884 13.1789 10.128Z" stroke="#A5A3B0" stroke-width="1.2" stroke-linecap="round" stroke-linejoin="round"/>
</svg>
