<svg width="16" height="16" viewBox="0 0 16 16" fill="none" xmlns="http://www.w3.org/2000/svg">
<path fill-rule="evenodd" clip-rule="evenodd" d="M6.19351 10.4051C8.96026 10.4051 11.325 10.8243 11.325 12.4991C11.325 14.1738 8.97601 14.6051 6.19351 14.6051C3.42601 14.6051 1.06201 14.1896 1.06201 12.5141C1.06201 10.8386 3.41026 10.4051 6.19351 10.4051Z" stroke="#7B6F72" stroke-width="1.2" stroke-linecap="round" stroke-linejoin="round"/>
<path fill-rule="evenodd" clip-rule="evenodd" d="M6.19331 8.01485C4.37681 8.01485 2.90381 6.5426 2.90381 4.7261C2.90381 2.9096 4.37681 1.43735 6.19331 1.43735C8.00906 1.43735 9.48206 2.9096 9.48206 4.7261C9.48881 6.53585 8.02631 8.0081 6.21656 8.01485H6.19331Z" stroke="#7B6F72" stroke-width="1.2" stroke-linecap="round" stroke-linejoin="round"/>
<path d="M11.3623 7.16121C12.5631 6.99246 13.4878 5.96196 13.4901 4.71471C13.4901 3.48546 12.5938 2.46546 11.4186 2.27271" stroke="#7B6F72" stroke-width="1.2" stroke-linecap="round" stroke-linejoin="round"/>
<path d="M12.9463 10.0491C14.1095 10.2224 14.9218 10.6304 14.9218 11.4704C14.9218 12.0486 14.5393 12.4236 13.9213 12.6584" stroke="#7B6F72" stroke-width="1.2" stroke-linecap="round" stroke-linejoin="round"/>
</svg>
