<svg width="14" height="14" viewBox="0 0 14 14" fill="none" xmlns="http://www.w3.org/2000/svg">
<path d="M6.99996 7.58334C7.32213 7.58334 7.58329 7.32217 7.58329 7.00001C7.58329 6.67784 7.32213 6.41667 6.99996 6.41667C6.67779 6.41667 6.41663 6.67784 6.41663 7.00001C6.41663 7.32217 6.67779 7.58334 6.99996 7.58334Z" fill="#A5A3B0" stroke="#A5A3B0" stroke-width="2" stroke-linecap="round" stroke-linejoin="round"/>
<path d="M6.99996 3.49999C7.32213 3.49999 7.58329 3.23883 7.58329 2.91666C7.58329 2.5945 7.32213 2.33333 6.99996 2.33333C6.67779 2.33333 6.41663 2.5945 6.41663 2.91666C6.41663 3.23883 6.67779 3.49999 6.99996 3.49999Z" fill="#A5A3B0" stroke="#A5A3B0" stroke-width="2" stroke-linecap="round" stroke-linejoin="round"/>
<path d="M6.99996 11.6667C7.32213 11.6667 7.58329 11.4055 7.58329 11.0833C7.58329 10.7612 7.32213 10.5 6.99996 10.5C6.67779 10.5 6.41663 10.7612 6.41663 11.0833C6.41663 11.4055 6.67779 11.6667 6.99996 11.6667Z" fill="#A5A3B0" stroke="#A5A3B0" stroke-width="2" stroke-linecap="round" stroke-linejoin="round"/>
</svg>
