<svg width="196" height="250" viewBox="0 0 196 250" fill="none" xmlns="http://www.w3.org/2000/svg">
<path d="M149.231 8.34781C149.231 8.34781 167.702 12.8013 175.015 21.396C182.328 29.9908 179.814 52.1432 177.907 64.8957C176.001 77.6481 170.89 86.8673 176.938 91.3208C182.985 95.7743 185.154 91.6495 185.154 91.6495C185.154 91.6495 176.938 105.651 168.277 107.574C159.617 109.496 147.571 98.6502 145.665 89.1023C143.758 79.5544 142.477 65.2079 144.021 55.3313C145.566 45.4548 148.59 42.1023 150.118 35.4139C151.646 28.7254 150.43 17.5835 150.43 17.5835L149.231 8.34781Z" fill="#3B2645"/>
<path d="M122.478 249.938C159.417 249.938 189.362 224.841 189.362 193.883C189.362 162.924 159.417 137.828 122.478 137.828C85.5385 137.828 55.5933 162.924 55.5933 193.883C55.5933 224.841 85.5385 249.938 122.478 249.938Z" fill="#FF8A00"/>
<path d="M65.7493 62.0694L64.2867 61.0998L57.4668 50.8782L62.9227 39.8677L75.1822 39.0624L76.6448 40.0484L65.7493 62.0694Z" fill="#393762"/>
<path d="M78.0081 61.2804L65.7486 62.0692L58.9287 51.8475L64.3682 40.837L76.6441 40.0482L83.4476 50.2699L78.0081 61.2804Z" fill="#636183"/>
<path d="M107.523 57.4187C104.458 60.8 101.84 64.5613 99.7339 68.6099C95.5927 76.1693 85.1245 86.6868 83.1854 88.8232C82.272 89.9719 81.101 90.8896 79.7672 91.5018C77.9208 86.0959 76.46 80.5658 75.3959 74.9533C74.4263 68.3798 72.9637 55.4631 72.9637 55.4631L76.8584 47.6736C76.8584 47.6736 73.6868 41.3302 72.4707 40.8701C71.2546 40.4099 68.8224 41.1001 65.1742 44.2718C61.5259 47.4435 60.0469 50.5987 61.756 54.477C63.4651 58.3554 67.1133 62.2666 66.6861 68.5935C66.2588 74.9204 66.456 97.0892 68.6417 104.386C70.8273 111.682 70.5973 111.699 73.5717 111.699C76.5462 111.699 85.0752 108.034 94.0315 103.482C99.2773 100.862 103.73 96.891 106.932 91.9784L107.523 57.4187Z" fill="#FFEDE5"/>
<path d="M126.027 53.5343C121.94 52.8396 117.76 52.9177 113.702 53.7644C107.654 55.227 104.516 59.0889 103.299 66.106C102.083 73.1231 97.7449 81.8329 100.654 88.4063C103.562 94.9797 106.208 100.025 106.455 105.333C106.573 110.399 106.337 115.468 105.748 120.501C105.267 121.507 104.718 122.479 104.105 123.41C104.105 123.41 103.612 127.272 91.5166 123.886C79.4215 120.501 63.9576 121.471 48.0006 125.102C32.0436 128.734 23.5803 131.676 22.8572 136.951C22.1342 142.226 22.1342 175.143 23.5803 184.822C24.3936 191.339 24.233 197.941 23.1037 204.411C19.0959 207.2 14.7982 209.547 10.2856 211.411C3.51495 214.074 -0.346932 215.52 0.852717 217.985C2.05237 220.45 6.65376 220.894 12.4548 220.894C18.2558 220.894 26.2426 220.417 26.2426 220.417C26.2426 220.417 18.9954 225.002 14.1475 228.141C9.29956 231.28 4.73103 232.019 6.90026 235.404C9.06949 238.79 29.9072 237.82 34.9523 237.82C39.9974 237.82 45.8313 235.881 46.3079 233.712C46.7845 231.543 44.8618 224.032 44.8618 221.14C44.8618 218.248 44.1387 205.413 47.031 199.612C49.9233 193.811 54.2946 176.885 54.0481 170.36C53.8016 163.836 53.325 159.728 53.325 159.728C53.325 159.728 81.0977 163.54 91.9439 167.402C102.79 171.264 126.997 174.42 138.369 168.865C149.741 163.31 154.326 156.523 152.633 146.86C150.94 137.198 146.339 130.903 147.555 119.531C148.771 108.159 148.755 97.0504 151.663 91.4958C154.572 85.9413 161.096 76.0154 160.603 69.4913C160.11 62.9672 148.032 56.3445 141.984 54.0109C135.936 51.6773 126.027 53.5343 126.027 53.5343Z" fill="#FFEDE5"/>
<path d="M22.7918 137.532C22.0687 142.84 22.0687 175.724 23.5149 185.403C24.3282 191.92 24.1676 198.522 23.0383 204.992C19.0305 207.781 14.7328 210.128 10.2201 211.993C3.44952 214.655 -0.412362 216.101 0.787287 218.566C1.98694 221.031 6.58833 221.475 12.3894 221.475C17.3194 221.475 23.7778 221.13 25.6348 221.015C26.8016 220.637 29.0859 219.832 29.0859 219.372C29.0859 218.911 31.0086 201.295 31.2551 184.302C31.5016 167.31 33.4408 147.688 33.4408 147.688L31.2715 138.979C29.2813 137.109 27.1374 135.411 24.8624 133.901C23.7567 134.822 23.0213 136.112 22.7918 137.532Z" fill="#FFEDE5"/>
<path d="M28.5928 212.962C28.5928 212.962 27.8698 211.319 26.6537 208.131C26.4395 207.303 25.9793 206.56 25.3337 206C24.6882 205.439 23.8878 205.088 23.0383 204.992C19.0305 207.781 14.7328 210.128 10.2201 211.993C3.44952 214.655 -0.412362 216.101 0.787287 218.566C1.98694 221.031 6.58833 221.475 12.3894 221.475C17.3194 221.475 23.7778 221.13 25.6348 221.015C26.8016 220.637 29.0859 219.832 29.0859 219.372C29.0859 219.109 29.3159 216.742 29.6446 213.077L28.5928 212.962Z" fill="#3B2645"/>
<path d="M121.919 131.961C115.692 128.683 110.27 124.064 106.044 118.436C105.913 119.866 105.798 120.868 105.732 121.082C105.251 122.088 104.702 123.06 104.089 123.991C104.089 123.991 103.596 127.853 91.5007 124.467C79.4056 121.082 63.9416 122.052 47.9846 125.683C32.0276 129.315 23.5644 132.257 22.8413 137.532C22.8413 137.779 22.8413 138.091 22.7427 138.452C23.6736 139.81 24.6775 141.115 25.75 142.364C27.8555 144.723 30.4915 146.548 33.4409 147.688C34.1804 151.073 38.7654 161.706 45.536 161.706C52.3066 161.706 53.2762 160.26 53.2762 160.26C53.2762 160.26 81.0982 164.122 91.9444 167.983C102.791 171.845 126.997 175.001 138.369 169.446C149.741 163.891 154.326 157.104 152.633 147.441C151.882 143.729 150.877 140.072 149.626 136.497C142.264 136.891 130.399 136.645 121.919 131.961Z" fill="#3B2645"/>
<path d="M105.748 121.082C105.267 122.088 104.718 123.06 104.105 123.991C104.105 123.991 103.612 127.853 91.5167 124.468C79.4216 121.082 63.9576 122.052 48.0006 125.684C32.0437 129.316 23.5804 132.257 22.8573 137.532C22.7094 138.601 22.5944 140.819 22.5122 143.662C25.6916 146.028 29.4862 147.426 33.4405 147.688C35.1703 144.701 37.6666 142.231 40.6714 140.532C43.6761 138.833 47.0802 137.968 50.5314 138.025C62.758 138.025 114.441 138.979 114.441 138.979L121.344 123.252C121.344 123.252 113.127 117.451 106.373 113.671C106.159 117.385 105.863 120.672 105.748 121.082Z" fill="#3B2645"/>
<path d="M147.653 122.348C148.278 119.669 160.603 105.503 161.836 100.573C163.068 95.6432 167.587 80.6393 163.479 72.0117C159.37 63.3841 154.227 61.3299 154.227 61.3299C150.452 58.5553 146.344 56.2642 142 54.51C135.969 52.0943 126.043 54.0334 126.043 54.0334C121.957 53.3388 117.776 53.4168 113.718 54.2635C107.671 55.7261 104.532 59.588 103.316 66.6051C102.1 73.6222 97.7447 82.4142 100.653 88.9876C103.562 95.561 106.208 100.606 106.454 105.914C106.573 110.98 106.337 116.049 105.748 121.082C105.267 122.088 104.718 123.06 104.104 123.991V124.09C105.896 127.787 110.004 135.593 114.523 138.978C118.766 139.109 122.845 140.64 126.125 143.333C131.055 147.688 137.021 148.641 143.545 148.641C146.641 148.518 149.705 147.965 152.649 146.998C151.006 138.387 147.21 132.389 147.473 122.89C147.569 122.723 147.63 122.539 147.653 122.348Z" fill="#FF8A00"/>
<path d="M145.024 39.5061C145.024 39.5061 151.088 30.1883 152.058 22.218C153.027 14.2478 151.581 6.8198 142.871 2.15267C134.162 -2.51446 121.343 2.15267 117.481 6.8198C113.62 11.4869 114.096 20.361 113.127 22.3002C112.157 24.2394 107.802 27.3782 108.295 28.5943C108.788 29.8103 111.927 31.4701 111.927 31.4701L113.57 38.9638C114.047 41.1495 115.493 44.0418 117.186 44.0418C119.486 43.8019 121.77 43.4177 124.022 42.8914C124.022 42.8914 124.499 50.4509 123.069 53.4911C121.146 57.5995 111.237 82.2169 115.592 84.7148C119.946 87.2127 138.369 67.8869 143.677 63.7785C148.985 59.6701 142.033 54.5921 142.033 54.5921C142.033 54.5921 139.65 54.4935 140.62 48.446C141.045 45.0569 142.596 41.9088 145.024 39.5061Z" fill="#FFEDE5"/>
<path d="M34.8869 238.352C39.9649 238.352 45.766 236.413 46.2425 234.244C46.6369 232.502 45.4866 227.391 44.9936 223.907C43.9928 224.266 42.9479 224.487 41.8876 224.565C39.2928 224.654 36.6971 224.411 34.1639 223.841C34.1065 222.841 33.8612 221.859 33.4408 220.949C32.7177 219.306 29.1023 219.306 29.1023 219.306L25.109 221.048H26.1936C26.1936 221.048 18.9464 225.633 14.0985 228.772C9.25061 231.91 4.68208 232.65 6.85131 236.035C9.02054 239.42 29.809 238.352 34.8869 238.352Z" fill="#3B2645"/>
<path d="M155.18 23.8942C156.133 15.924 151.581 6.81977 142.872 2.15264C135.592 -1.69281 125.468 0.903692 120.045 4.53551C121.129 4.73182 122.105 5.31597 122.79 6.17886C126.29 10.0079 124.433 17.0086 127.572 20.1967C130.711 23.3848 132.338 22.4316 132.338 22.4316C132.338 22.4316 135.854 16.6963 137.432 22.4316C139.01 28.167 136.808 30.6484 135.214 31.3386C134.079 31.7656 132.907 32.0847 131.713 32.2918C131.713 32.2918 140.259 39.8348 145.024 39.5718C145.024 39.5061 154.211 31.8809 155.18 23.8942Z" fill="#3B2645"/>
<path d="M69.9399 65.5202L68.4938 64.5342L61.6738 54.3126L67.1133 43.3021L79.3728 42.5133L80.8353 43.4828L69.9399 65.5202Z" fill="#393762"/>
<path d="M82.2151 64.715L69.9392 65.5203L63.1357 55.2822L68.5752 44.2717L80.8347 43.4829L87.6546 53.7046L82.2151 64.715Z" fill="#636183"/>
<path d="M167.521 157.104C165.814 153.084 164.824 148.796 164.596 144.434C164.596 139.981 159.485 128.494 159.485 125.946C160.177 115.94 161.406 105.978 163.166 96.1031C165.96 86.7031 165.73 76.5308 163.479 72.0115C161.227 67.4923 152.172 68.314 149.707 75.7091C147.242 83.1042 147.39 97.4507 147.39 97.4507C146.569 103.893 146.01 118.256 145.747 126.883C145.566 134.558 147.193 142.298 150.874 147.82C156.084 155.642 158.549 165.896 160.143 165.896C161.737 165.896 170.184 164.845 170.184 164.845C170.184 164.845 170.627 163.974 167.521 157.104Z" fill="#FFEDE5"/>
<path d="M172.074 173.226C172.074 173.226 173.718 164.319 173.356 162.396C172.995 160.474 167.621 161.772 165.386 161.772C163.151 161.772 161.573 161.443 161.886 162.725C162.198 164.007 166.668 164.368 166.668 164.368L168.311 164.993L172.074 173.226Z" fill="#FFEDE5"/>
<path d="M183.002 166.915H150.2V171.369H183.002V166.915Z" fill="#636183"/>
<path d="M195.097 157.055H180.767V180.621H195.097V157.055Z" fill="#636183"/>
<path d="M150.825 157.055H136.495V180.621H150.825V157.055Z" fill="#636183"/>
<path d="M156.248 163.415L158.039 172.157C158.157 172.741 158.48 173.264 158.951 173.629C159.422 173.994 160.008 174.177 160.603 174.146C162.838 174.014 166.305 173.817 168.343 173.604C171.531 173.291 172.484 174.244 172.813 171.96C172.961 170.81 173.207 168.674 173.421 166.866C173.464 166.47 173.421 166.07 173.295 165.692C173.17 165.314 172.964 164.968 172.693 164.676C172.422 164.385 172.091 164.155 171.723 164.003C171.356 163.85 170.96 163.779 170.562 163.793C168.08 163.793 164.958 163.99 164.202 163.99C162.936 164.056 158.795 160.555 156.248 163.415Z" fill="#FFEDE5"/>
</svg>
