<svg width="17" height="18" viewBox="0 0 17 18" fill="none" xmlns="http://www.w3.org/2000/svg">
<path fill-rule="evenodd" clip-rule="evenodd" d="M15.3389 5.35299L14.8202 4.45292C14.3814 3.69131 13.4089 3.42858 12.6463 3.86558V3.86558C12.2832 4.07943 11.85 4.14011 11.4422 4.03422C11.0344 3.92833 10.6855 3.66458 10.4723 3.30112C10.3352 3.0701 10.2616 2.80698 10.2588 2.53835V2.53835C10.2711 2.10766 10.1087 1.69031 9.80833 1.38137C9.50801 1.07243 9.09543 0.898199 8.66457 0.898377H7.61956C7.19745 0.898372 6.79274 1.06657 6.49498 1.36577C6.19722 1.66496 6.03096 2.07047 6.03299 2.49258V2.49258C6.02048 3.36408 5.31038 4.06399 4.43879 4.0639C4.17016 4.06111 3.90703 3.98743 3.67601 3.85032V3.85032C2.91336 3.41332 1.94091 3.67606 1.5021 4.43766L0.945268 5.35299C0.506988 6.11364 0.766146 7.08549 1.52498 7.5269V7.5269C2.01823 7.81168 2.32209 8.33797 2.32209 8.90753C2.32209 9.47709 2.01823 10.0034 1.52498 10.2882V10.2882C0.76711 10.7266 0.507669 11.6961 0.945268 12.4544V12.4544L1.47158 13.3621C1.67719 13.7331 2.02215 14.0069 2.43014 14.1228C2.83813 14.2388 3.27551 14.1874 3.6455 13.98V13.98C4.00921 13.7678 4.44264 13.7096 4.84943 13.8185C5.25622 13.9273 5.60268 14.1942 5.81178 14.5597C5.94889 14.7907 6.02257 15.0539 6.02536 15.3225V15.3225C6.02536 16.2029 6.73911 16.9167 7.61956 16.9167H8.66457C9.54205 16.9167 10.2546 16.2076 10.2588 15.3301V15.3301C10.2567 14.9067 10.424 14.5 10.7234 14.2006C11.0229 13.9012 11.4295 13.7339 11.853 13.7359C12.121 13.7431 12.383 13.8165 12.6157 13.9495V13.9495C13.3764 14.3878 14.3482 14.1286 14.7897 13.3698V13.3698L15.3389 12.4544C15.5514 12.0896 15.6098 11.655 15.501 11.247C15.3922 10.8389 15.1252 10.4911 14.7592 10.2805V10.2805C14.3931 10.0699 14.1261 9.72213 14.0173 9.3141C13.9085 8.90607 13.9669 8.4715 14.1794 8.10662C14.3177 7.86526 14.5178 7.66514 14.7592 7.5269V7.5269C15.5134 7.08572 15.772 6.11956 15.3389 5.36062V5.36062V5.35299Z" stroke="url(#paint0_linear_1689_628)" stroke-width="1.2" stroke-linecap="round" stroke-linejoin="round"/>
<ellipse cx="8.14589" cy="8.90755" rx="2.1968" ry="2.1968" stroke="url(#paint1_linear_1689_628)" stroke-width="1.2" stroke-linecap="round" stroke-linejoin="round"/>
<defs>
<linearGradient id="paint0_linear_1689_628" x1="15.5546" y1="16.9167" x2="-4.21761" y2="15.5009" gradientUnits="userSpaceOnUse">
<stop stop-color="#00FF66"/>
<stop offset="1" stop-color="#00F0FF"/>
</linearGradient>
<linearGradient id="paint1_linear_1689_628" x1="10.3427" y1="11.1043" x2="4.48694" y2="10.6512" gradientUnits="userSpaceOnUse">
<stop stop-color="#00FF66"/>
<stop offset="1" stop-color="#00F0FF"/>
</linearGradient>
</defs>
</svg>
