<svg width="184" height="197" viewBox="0 0 184 197" fill="none" xmlns="http://www.w3.org/2000/svg">
<path d="M59.0675 144.739C59.6535 144.817 60.22 144.876 60.7669 144.915V155.379L60.7083 162.043C60.552 162.004 60.3958 161.965 60.2395 161.926C59.5363 161.731 58.8136 161.517 58.0713 161.283C57.1338 161.01 56.2157 160.718 55.3172 160.406L51.6255 159.178C50.3949 158.711 49.2229 158.185 47.9924 157.717C45.5898 156.782 43.2459 155.554 40.9019 154.502C36.3312 152.047 31.8777 149.358 27.7758 146.142C19.6306 139.771 12.8331 131.82 8.20382 122.993C7.69597 122.019 7.20764 121.025 6.73885 120.012C6.46539 119.428 6.19193 118.824 5.91847 118.2C4.6293 115.277 3.55499 112.276 2.69554 109.198C1.40637 104.521 0.46879 99.6691 0.351593 94.8757C2.51975 104.229 7.03185 112.822 12.7159 120.071C18.5172 127.319 25.7248 133.048 33.6357 137.14C37.6204 139.128 41.8395 140.706 46.0586 141.992C48.2268 142.577 50.2777 143.22 52.5045 143.57C53.6178 143.804 54.6726 144.038 55.7274 144.272L59.0675 144.739Z" fill="url(#paint0_linear_3_47)"/>
<path d="M60.7669 155.379L60.7083 162.043C60.552 162.004 60.3958 161.965 60.2395 161.926C59.5363 161.731 58.8136 161.517 58.0713 161.283C57.1338 161.01 56.2157 160.718 55.3172 160.406L51.6255 159.178C50.3949 158.711 49.2229 158.185 47.9924 157.717C45.5898 156.782 43.2459 155.554 40.9019 154.502C36.3312 152.047 31.8777 149.358 27.7758 146.142C19.6306 139.771 12.8331 131.82 8.20382 122.993C7.69597 122.019 7.20764 121.025 6.73885 120.012C6.27006 118.999 5.82081 117.986 5.39108 116.972C15.6459 136.439 39.6127 150.994 60.7669 155.379Z" fill="url(#paint1_linear_3_47)"/>
<path d="M65.9822 141.407C65.9822 141.407 67.0369 167.713 61.9389 186.185C56.8994 204.716 96.9809 184.432 96.9809 184.432L88.3083 131.002L70.7873 132.931L65.9822 141.407Z" fill="white"/>
<path d="M125.401 88.2116C125.362 88.2116 125.362 88.2116 125.401 88.2116H125.343C125.343 88.2116 125.343 88.1921 125.343 88.1531C125.343 88.1531 125.343 88.2116 125.401 88.2116Z" fill="url(#paint2_linear_3_47)"/>
<path d="M159.623 94.1742C159.623 98.7338 159.369 103.235 158.861 107.678C157.806 116.563 155.814 125.332 152.708 133.691C151.126 137.842 149.31 141.934 147.2 145.85C145.09 149.767 142.746 153.566 140.11 157.074C139.524 158.009 138.82 158.828 138.117 159.704C137.473 160.581 136.769 161.458 136.066 162.277L133.898 164.732L131.671 167.128C130.206 168.707 128.566 170.11 126.983 171.63C126.163 172.331 125.343 173.033 124.522 173.734C123.643 174.436 122.882 175.137 121.944 175.78L119.366 177.709C118.545 178.411 117.608 178.937 116.729 179.521C114.971 180.749 113.096 181.801 111.22 182.912C107.529 184.958 103.72 186.828 99.8522 188.348C97.9185 189.167 95.9261 189.81 93.9923 190.511C92 191.096 90.0662 191.797 88.0739 192.265C84.0892 193.376 80.1045 194.194 76.1197 194.837C68.0917 196.182 60.1223 196.708 52.1529 196.649C44.242 196.591 36.3312 196.006 28.5962 194.603C36.4484 194.603 44.1834 193.726 51.8013 192.44C59.4191 191.037 66.8611 189.167 73.9516 186.595C88.1911 181.509 101.141 173.676 110.4 163.212C111.045 162.569 111.572 161.867 112.099 161.224C112.685 160.523 113.213 159.88 113.74 159.178C114.795 157.775 115.908 156.431 116.787 154.911L118.194 152.748L119.541 150.527C119.952 149.767 120.362 149.007 120.772 148.247C121.124 147.487 121.534 146.727 121.944 145.967C123.409 142.869 124.581 139.712 125.636 136.497C126.378 134.198 126.983 131.859 127.452 129.482C133.546 124.689 142.629 115.803 151.771 100.78C154.29 96.6294 156.869 92.0697 159.33 86.9255C159.33 87.0814 159.33 87.2178 159.33 87.3347C159.486 89.673 159.584 91.9528 159.623 94.1742Z" fill="url(#paint3_linear_3_47)"/>
<path d="M159.623 94.1742C159.623 98.7338 159.369 103.235 158.861 107.678C157.806 116.563 155.814 125.332 152.708 133.691C151.126 137.842 149.31 141.934 147.2 145.85C145.09 149.767 142.746 153.566 140.11 157.074C139.524 158.009 138.82 158.828 138.117 159.704C137.473 160.581 136.769 161.458 136.066 162.277L133.898 164.732L131.671 167.128C130.206 168.707 128.566 170.11 126.983 171.63C126.163 172.331 125.343 173.033 124.522 173.734C123.643 174.436 122.882 175.137 121.944 175.78L119.366 177.709C118.545 178.411 117.608 178.937 116.729 179.521C114.971 180.749 113.096 181.801 111.22 182.912C107.529 184.958 103.72 186.828 99.8522 188.348C97.9185 189.167 95.9261 189.81 93.9923 190.511C92 191.096 90.0662 191.797 88.0739 192.265C84.0892 193.376 80.1045 194.194 76.1197 194.837C68.0917 196.182 60.1223 196.708 52.1529 196.649C44.242 196.591 36.3312 196.006 28.5962 194.603C103.368 205.242 145.149 170.753 151.771 100.78C154.29 96.6294 156.869 92.0697 159.33 86.9255C159.33 87.0814 159.33 87.2178 159.33 87.3347C159.486 89.673 159.584 91.9528 159.623 94.1742Z" fill="url(#paint4_linear_3_47)"/>
<path d="M183.648 71.4929L183.59 74.2988L183.531 80.0276C183.121 87.5685 182.301 95.1095 180.777 102.475C177.671 117.265 172.046 131.411 164.018 143.746C163.588 144.408 163.139 145.071 162.67 145.733C162.475 146.045 162.26 146.376 162.025 146.727C161.908 146.883 161.791 147.039 161.674 147.195C161.01 148.169 160.326 149.124 159.623 150.059C159.584 150.098 159.545 150.137 159.506 150.176C159.115 150.683 158.724 151.189 158.334 151.696C157.943 152.202 157.552 152.709 157.162 153.216C156.341 154.229 155.501 155.223 154.642 156.197C154.681 156.158 154.72 156.119 154.759 156.08C153.353 157.717 151.888 159.354 150.364 160.932C145.325 166.135 139.817 170.987 133.722 174.786C139.172 170.11 143.743 164.615 147.845 158.886C151.946 153.099 155.404 146.961 158.275 140.647C164.018 127.904 167.065 114.342 167.885 100.78C168.178 93.9988 167.885 87.2178 167.241 80.5537L166.538 75.5264L166.186 73.0128L165.717 70.8498C168.53 62.0813 170.464 53.1374 171.811 44.6027C173.335 34.665 174.038 25.2534 174.39 17.5371C175.601 21.4342 176.714 25.3703 177.73 29.3454C178.628 33.0087 179.449 36.6915 180.191 40.3938C180.543 42.2644 180.875 44.135 181.187 46.0056C181.344 46.9409 181.5 47.8763 181.656 48.8116C181.93 50.6822 182.183 52.5723 182.418 54.4819C182.496 55.4172 182.594 56.3525 182.711 57.2878L183.238 62.9582L183.473 68.6285L183.648 71.4929Z" fill="url(#paint5_linear_3_47)"/>
<path d="M183.648 71.4929L183.59 74.2988L183.531 80.0276C183.121 87.5685 182.301 95.1095 180.777 102.475C177.671 117.265 172.046 131.411 164.018 143.746C163.588 144.408 163.139 145.071 162.67 145.733C162.475 146.045 162.26 146.376 162.025 146.727C161.908 146.883 161.791 147.039 161.674 147.195C161.01 148.169 160.326 149.124 159.623 150.059C159.584 150.098 159.545 150.137 159.506 150.176C159.115 150.683 158.724 151.189 158.334 151.696C157.943 152.202 157.552 152.709 157.162 153.216C156.341 154.229 155.501 155.223 154.642 156.197C180.367 122 178.082 65.8226 171.811 44.6027C173.335 34.665 174.038 25.2534 174.39 17.5371C175.601 21.4342 176.714 25.3703 177.73 29.3454C178.668 33.0087 179.488 36.6915 180.191 40.3938C180.543 42.2644 180.875 44.135 181.187 46.0056C181.344 46.9409 181.5 47.8763 181.656 48.8116C181.93 50.6822 182.183 52.5723 182.418 54.4819C182.535 55.4172 182.633 56.3525 182.711 57.2878L183.238 62.9582L183.473 68.6285L183.648 71.4929Z" fill="url(#paint6_linear_3_47)"/>
<path d="M125.401 88.2116C125.362 88.2116 125.362 88.2116 125.401 88.2116H125.343C125.343 88.2116 125.343 88.1921 125.343 88.1531C125.343 88.1531 125.343 88.2116 125.401 88.2116Z" fill="white"/>
<path d="M57.535 30.3048C56.949 34.806 52.8471 38.0211 48.2764 37.495C43.7057 36.9105 40.4828 32.76 41.0688 28.2588C41.5962 23.6992 45.7567 20.484 50.3274 21.0686C54.8395 21.5947 58.121 25.7452 57.535 30.3048Z" fill="url(#paint7_linear_3_47)"/>
<path d="M171.05 17.7709C168.706 53.5466 157.338 90.6668 132.023 116.972C127.98 121.24 123.35 124.864 118.369 128.079C118.838 131.353 119.424 136.146 119.717 142.226C112.041 159.821 97.0395 173.033 78.0535 181.392C74.186 183.087 70.1427 184.607 65.9236 185.893C66.158 174.319 66.0408 155.086 66.0408 151.988C66.0408 146.026 65.6892 141.349 65.3376 138.251C52.2701 137.257 39.2611 134.393 28.479 126.852C4.2191 110.25 -2.63695 77.5139 13.1261 52.7282C16.7592 47.1748 21.3885 42.2059 26.9554 38.5816C29.2994 37.0617 32.3465 37.4709 34.1631 39.5169C34.3193 39.7118 34.4756 39.9066 34.6318 40.1015C35.921 42.0306 35.8624 44.4858 34.6318 46.2979C34.4365 46.6097 34.1826 46.902 33.8701 47.1748C23.8497 57.9309 20.3338 73.5973 24.7287 87.3347C24.9631 88.1141 25.2365 88.8741 25.549 89.6145C25.7444 90.1991 25.9788 90.7642 26.2522 91.3098C26.3694 91.5436 26.4866 91.7774 26.6038 92.0113C26.7601 92.362 26.9359 92.6933 27.1312 93.0051C27.2875 93.3168 27.4437 93.6091 27.6 93.8819C27.7953 94.2326 27.9907 94.5639 28.186 94.8757C28.3813 95.1874 28.5766 95.4992 28.772 95.811C28.811 95.8499 28.8501 95.9084 28.8892 95.9864C29.0845 96.2591 29.2798 96.5514 29.4752 96.8632C29.7096 97.175 29.9439 97.4867 30.1783 97.7985C30.4127 98.1103 30.6471 98.4221 30.8815 98.7338C31.1159 98.9677 31.3308 99.221 31.5261 99.4938C31.6042 99.5717 31.7019 99.6691 31.8191 99.786C32.0144 100.02 32.2098 100.254 32.4051 100.488C32.6786 100.76 32.952 101.033 33.2255 101.306C33.538 101.618 33.8701 101.929 34.2217 102.241C34.456 102.475 34.6904 102.689 34.9248 102.884C35.1983 103.157 35.4913 103.41 35.8038 103.644C36.1163 103.917 36.4289 104.17 36.7414 104.404C38.851 106.041 41.1949 107.502 43.7146 108.613C44.0272 108.769 44.3397 108.925 44.6522 109.081C46.879 110.055 49.2034 110.815 51.6255 111.361C52.2505 111.477 52.8756 111.594 53.5006 111.711C64.693 113.582 76.2955 113.933 87.4293 111.653C98.6803 109.373 108.408 104.287 116.963 96.6878C120.245 93.765 123.292 90.6083 126.104 87.2763C126.378 86.9645 126.632 86.6527 126.866 86.341C127.14 86.0681 127.394 85.7954 127.628 85.5226C139.992 70.5576 147.259 52.5528 153.704 34.4312C155.931 28.1763 157.982 21.8045 160.209 15.5496C162.436 9.41157 171.46 11.3407 171.05 17.7709Z" fill="#434492"/>
<path d="M103.251 88.6792C102.02 98.7338 92.8204 105.866 82.6828 104.638C72.6038 103.41 65.3962 94.1742 66.6854 84.1196C67.9159 74.065 77.1159 66.8748 87.2535 68.1608C97.3325 69.3884 104.54 78.5662 103.251 88.6792Z" fill="#434492"/>
<path d="M160.209 15.5496C157.982 21.8045 155.931 28.1763 153.704 34.4312C147.259 52.5528 139.992 70.5576 127.628 85.5226C127.12 86.0682 126.632 86.6332 126.163 87.2178C120.42 102.65 116.084 114.225 118.369 128.079C123.35 124.864 127.98 121.24 132.023 116.972C157.338 90.6668 168.706 53.5466 171.05 17.7709C171.46 11.3407 162.436 9.41157 160.209 15.5496Z" fill="#434492"/>
<path d="M65.9236 185.893C66.158 174.319 66.0408 155.086 66.0408 151.988C66.0408 146.026 65.6892 141.349 65.3376 138.251C52.2701 137.257 39.2611 134.393 28.479 126.852C4.2191 110.25 -2.63695 77.5139 13.1261 52.7282C16.7592 47.1748 21.3885 42.2059 26.9554 38.5816C29.2994 37.0617 32.3465 37.4709 34.1631 39.5169C34.3193 39.7118 34.4756 39.9066 34.6318 40.1015C35.921 42.0306 35.8624 44.4857 34.6318 46.2979C34.4365 46.6097 34.1826 46.902 33.8701 47.1748C23.8497 57.9309 20.3338 73.5973 24.7287 87.3347C24.9631 88.1141 25.2365 88.8741 25.549 89.6145C25.7444 90.1991 25.9788 90.7642 26.2522 91.3098C26.3694 91.5436 26.4866 91.7774 26.6038 92.0113C26.7601 92.362 26.9359 92.6933 27.1312 93.005C27.2875 93.3168 27.4437 93.6091 27.6 93.8819C27.7953 94.2326 27.9907 94.5639 28.186 94.8757C28.3813 95.1874 28.5766 95.4992 28.772 95.811C28.811 95.8499 28.8501 95.9084 28.8892 95.9863C29.0845 96.2591 29.2798 96.5514 29.4752 96.8632C29.7096 97.175 29.9439 97.4867 30.1783 97.7985C30.4127 98.1103 30.6471 98.4221 30.8815 98.7338C31.1159 99.0066 31.3308 99.2599 31.5261 99.4938C31.6042 99.5717 31.7019 99.6691 31.8191 99.786C32.0144 100.02 32.2098 100.254 32.4051 100.488C32.6786 100.76 32.952 101.033 33.2255 101.306C33.538 101.618 33.8701 101.929 34.2217 102.241C34.456 102.475 34.6904 102.689 34.9248 102.884C35.1983 103.157 35.4913 103.41 35.8038 103.644C36.1163 103.917 36.4289 104.17 36.7414 104.404C38.851 106.041 41.1949 107.502 43.7146 108.613C44.0272 108.769 44.3397 108.925 44.6522 109.081C46.879 110.016 49.1643 110.776 51.5669 111.302C51.5669 111.302 51.5864 111.322 51.6255 111.361C69.9669 119.778 74.7134 125.098 75.065 144.33C75.1822 148.598 76.8815 166.369 78.0535 181.392C74.186 183.087 70.1427 184.607 65.9236 185.893Z" fill="url(#paint8_linear_3_47)"/>
<defs>
<linearGradient id="paint0_linear_3_47" x1="-3151.77" y1="2262.11" x2="631.423" y2="7996.88" gradientUnits="userSpaceOnUse">
<stop stop-color="#FFBD0B"/>
<stop offset="1" stop-color="#FC9A0A"/>
</linearGradient>
<linearGradient id="paint1_linear_3_47" x1="-5109.16" y1="2477.3" x2="-3591.32" y2="6518.41" gradientUnits="userSpaceOnUse">
<stop stop-color="#FFBD0B"/>
<stop offset="1" stop-color="#FC9A0A"/>
</linearGradient>
<linearGradient id="paint2_linear_3_47" x1="125.084" y1="75.7003" x2="125.082" y2="75.6952" gradientUnits="userSpaceOnUse">
<stop stop-color="#FFBD0B"/>
<stop offset="1" stop-color="#FC9A0A"/>
</linearGradient>
<linearGradient id="paint3_linear_3_47" x1="31465.2" y1="-18157" x2="22454" y2="-40416.9" gradientUnits="userSpaceOnUse">
<stop stop-color="#FFBD0B"/>
<stop offset="1" stop-color="#FC9A0A"/>
</linearGradient>
<linearGradient id="paint4_linear_3_47" x1="6421.56" y1="16406.4" x2="35713.9" y2="16406.4" gradientUnits="userSpaceOnUse">
<stop stop-color="#FFBD0B"/>
<stop offset="1" stop-color="#FC9A0A"/>
</linearGradient>
<linearGradient id="paint5_linear_3_47" x1="-4769.06" y1="-15587.5" x2="-7073.99" y2="-21281.3" gradientUnits="userSpaceOnUse">
<stop stop-color="#FFBD0B"/>
<stop offset="1" stop-color="#FC9A0A"/>
</linearGradient>
<linearGradient id="paint6_linear_3_47" x1="-9406.17" y1="36758.5" x2="-11109" y2="43673.9" gradientUnits="userSpaceOnUse">
<stop stop-color="#FFBD0B"/>
<stop offset="1" stop-color="#FC9A0A"/>
</linearGradient>
<linearGradient id="paint7_linear_3_47" x1="2370.66" y1="3170.9" x2="2683.8" y2="3597.33" gradientUnits="userSpaceOnUse">
<stop stop-color="#FD9F0A"/>
<stop offset="1" stop-color="#F95507"/>
</linearGradient>
<linearGradient id="paint8_linear_3_47" x1="-2625.21" y1="3924.66" x2="8772.52" y2="16229" gradientUnits="userSpaceOnUse">
<stop stop-color="#5052DC"/>
<stop offset="1" stop-color="#3739B4"/>
</linearGradient>
</defs>
</svg>
